<svg width="33" height="28" fill="none" xmlns="http://www.w3.org/2000/svg">
  <path d="M31.152 16.592h-5.664c-1.104 3.216-4.128 5.088-8.4 5.088-4.944 0-9.072-2.496-9.072-7.536 0-4.992 4.224-7.632 9.072-7.632 3.936 0 7.248 1.872 8.352 5.04h5.664c-.528-6.192-5.664-9.936-14.016-9.936-8.928 0-15.36 4.416-15.36 12.528 0 8.16 6.432 12.432 15.36 12.432 8.4 0 13.584-3.696 14.064-9.984z" fill="#000" id="inner-circle"/>
  <path d="M31.152 16.592l.997.076.082-1.076h-1.079v1zm-5.664 0v-1h-.714l-.232.675.946.325zm-.048-5.04l-.944.33.234.67h.71v-1zm5.664 0v1h1.089l-.093-1.085-.996.085zm.048 4.04h-5.664v2h5.664v-2zm-6.61.675c-.928 2.705-3.484 4.413-7.454 4.413v2c4.574 0 8.066-2.036 9.346-5.763l-1.892-.65zm-7.454 4.413c-2.319 0-4.355-.587-5.785-1.674-1.398-1.063-2.287-2.65-2.287-4.862h-2c0 2.828 1.175 5.008 3.077 6.454 1.87 1.421 4.37 2.082 6.995 2.082v-2zm-8.072-6.536c0-2.18.907-3.798 2.33-4.897 1.449-1.12 3.486-1.735 5.742-1.735v-2c-2.593 0-5.09.704-6.965 2.153-1.902 1.469-3.107 3.666-3.107 6.479h2zm8.072-6.632c3.654 0 6.486 1.723 7.408 4.37l1.888-.66c-1.286-3.69-5.078-5.71-9.296-5.71v2zm8.352 5.04h5.664v-2H25.44v2zm6.66-1.085c-.288-3.38-1.85-6.133-4.489-8.019C24.998 1.581 21.401.616 17.088.616v2c4.039 0 7.186.907 9.36 2.46 2.15 1.534 3.42 3.748 3.66 6.561l1.992-.17zM17.088.616c-4.615 0-8.693 1.14-11.642 3.433C2.468 6.364.728 9.793.728 14.144h2c0-3.761 1.476-6.596 3.946-8.517 2.5-1.943 6.101-3.011 10.414-3.011v-2zM.728 14.144c0 4.374 1.74 7.782 4.724 10.07 2.95 2.261 7.028 3.362 11.636 3.362v-2c-4.32 0-7.922-1.035-10.42-2.95-2.464-1.888-3.94-4.696-3.94-8.482h-2zm16.36 13.432c4.333 0 7.954-.952 10.581-2.819 2.657-1.888 4.218-4.659 4.48-8.089l-1.994-.152c-.218 2.858-1.489 5.079-3.644 6.61-2.185 1.554-5.356 2.45-9.423 2.45v2z" fill="#000" id="outline"/>
</svg>
